<svg preserveAspectRatio="xMidYMid meet" data-bbox="19.993 20 160.015 160" viewBox="19.993 20 160.015 160" height="200" width="200" xmlns="http://www.w3.org/2000/svg" data-type="color" role="presentation" aria-hidden="true" aria-label=""><defs><style>#comp-lqwmjehp1 svg [data-color="1"] {fill: #63C19C;}</style></defs>
    <g>
        <path d="M121.974 119.971a3.804 3.804 0 0 1-1.778-.44L100 108.874l-20.197 10.657a3.811 3.811 0 0 1-5.533-4.011l3.861-22.591-16.35-15.996a3.809 3.809 0 0 1 2.114-6.493l22.584-3.294 10.102-20.545a3.809 3.809 0 0 1 6.838 0l10.102 20.545 22.584 3.294a3.812 3.812 0 0 1 2.114 6.493l-16.35 15.996 3.86 22.59a3.809 3.809 0 0 1-3.755 4.452zM72.61 76.869l12.276 12.01a3.809 3.809 0 0 1 1.091 3.365l-2.896 16.941 15.141-7.989a3.81 3.81 0 0 1 3.556 0l15.14 7.989-2.895-16.941a3.81 3.81 0 0 1 1.091-3.365l12.276-12.01-16.952-2.472a3.813 3.813 0 0 1-2.869-2.089L100 56.916l-7.568 15.392a3.813 3.813 0 0 1-2.869 2.089L72.61 76.869z" fill="#112F5B" data-color="1"/>
        <path d="M100 149.524c-35.71 0-64.762-29.052-64.762-64.762S64.29 20 100 20s64.762 29.052 64.762 64.762S135.71 149.524 100 149.524zm0-121.905c-31.509 0-57.143 25.634-57.143 57.143S68.491 141.905 100 141.905s57.143-25.634 57.143-57.143S131.509 27.619 100 27.619z" fill="#112F5B" data-color="1"/>
        <path d="M44.127 180a3.81 3.81 0 0 1-2.693-6.504l34.377-34.377a3.81 3.81 0 0 1 5.387 5.388L46.82 178.884A3.796 3.796 0 0 1 44.127 180z" fill="#112F5B" data-color="1"/>
        <path d="M23.81 159.683a3.81 3.81 0 0 1-2.693-6.504l30.626-30.626a3.81 3.81 0 0 1 5.387 5.388l-30.626 30.626a3.798 3.798 0 0 1-2.694 1.116z" fill="#112F5B" data-color="1"/>
        <path d="M44.127 180a3.81 3.81 0 0 1-3.81-3.81v-20.317a3.81 3.81 0 1 1 7.62 0v20.317a3.81 3.81 0 0 1-3.81 3.81z" fill="#112F5B" data-color="1"/>
        <path d="M44.127 159.683H23.81a3.81 3.81 0 1 1 0-7.62h20.317a3.81 3.81 0 1 1 0 7.62z" fill="#112F5B" data-color="1"/>
        <path d="M155.873 180a3.796 3.796 0 0 1-2.693-1.116l-34.378-34.378a3.81 3.81 0 0 1 5.387-5.388l34.378 34.378a3.81 3.81 0 0 1-2.694 6.504z" fill="#112F5B" data-color="1"/>
        <path d="M176.19 159.683a3.796 3.796 0 0 1-2.693-1.116l-30.628-30.627a3.81 3.81 0 0 1 5.387-5.388l30.628 30.627a3.81 3.81 0 0 1-2.694 6.504z" fill="#112F5B" data-color="1"/>
        <path d="M155.873 180a3.81 3.81 0 0 1-3.81-3.81v-20.317a3.81 3.81 0 1 1 7.62 0v20.317a3.81 3.81 0 0 1-3.81 3.81z" fill="#112F5B" data-color="1"/>
        <path d="M176.19 159.683h-20.317a3.81 3.81 0 1 1 0-7.62h20.317a3.81 3.81 0 1 1 0 7.62z" fill="#112F5B" data-color="1"/>
    </g>
</svg>