<svg preserveAspectRatio="xMidYMid meet" data-bbox="20.198 20.811 159.04 159.04" viewBox="20.198 20.811 159.04 159.04" height="200" width="200" xmlns="http://www.w3.org/2000/svg" data-type="color" role="presentation" aria-hidden="true" aria-label=""><defs><style>#comp-lqwmhpba svg [data-color="1"] {fill: #63C19C;}</style></defs>
    <g>
        <path d="M99.718 20.811c-32.299 0-61.151 19.283-73.504 49.127a78.968 78.968 0 0 0-3.467 10.349 79.739 79.739 0 0 0-2.549 20.044c0 43.848 35.673 79.52 79.52 79.52s79.52-35.672 79.52-79.52c0-43.847-35.673-79.52-79.52-79.52zm34.719 38.313c2.03 0 3.681 1.651 3.681 3.681s-1.651 3.681-3.681 3.681c-2.029 0-3.68-1.651-3.68-3.681s1.651-3.681 3.68-3.681zm-60.365 97.471c-2.03 0-3.681-1.65-3.681-3.68s1.651-3.682 3.681-3.682c2.029 0 3.68 1.652 3.68 3.682s-1.651 3.68-3.68 3.68zm75.764.777l-22.751-.014v-11.142c3.122-.794 5.449-3.605 5.449-6.971 0-3.979-3.237-7.217-7.216-7.217s-7.216 3.238-7.216 7.217c0 3.366 2.326 6.177 5.449 6.971v11.14c-13.07-.006-16.269-.004-17.164.025v-.009c-1.484 0-2.591-.413-3.386-1.262-1.718-1.837-1.521-5.123-1.514-5.28l-.001-14.419c-.08-2.72-.956-4.809-2.605-6.207-2.246-1.907-5.057-1.764-5.764-1.693H74.494c-.78-3.143-3.603-5.488-6.984-5.488-3.979 0-7.216 3.237-7.216 7.216s3.237 7.215 7.216 7.215c3.351 0 6.151-2.307 6.959-5.408h18.747l.223-.014c.02-.005 1.904-.211 3.173.882.84.725 1.291 1.937 1.34 3.549l.005 14.238c-.015.195-.322 4.826 2.444 7.806 1.48 1.593 3.495 2.401 5.986 2.401l.226-.005c.734-.007 4.294-.021 18.263-.01l20.653.013c-12.746 9.664-28.617 15.411-45.81 15.411a75.668 75.668 0 0 1-23.879-3.865v-12.564c3.122-.794 5.448-3.605 5.448-6.971 0-3.979-3.237-7.217-7.216-7.217s-7.216 3.238-7.216 7.217c0 3.366 2.326 6.177 5.449 6.971v11.292c-11.637-4.518-21.887-11.82-29.939-21.089l-.009-45.897c-.003-.04-.06-.967.698-1.768.939-.994 2.789-1.504 5.394-1.45l27.163-.002c.386.013 3.771.101 6.085-2.216 1.401-1.402 2.056-3.309 1.948-5.587v-7.535c3.127-.79 5.458-3.605 5.458-6.974 0-3.979-3.237-7.216-7.216-7.216s-7.216 3.237-7.216 7.216c0 3.362 2.321 6.171 5.439 6.969l.001 7.623c.062 1.336-.233 2.316-.904 2.995-1.238 1.254-3.424 1.194-3.515 1.193H48.479c-3.701-.045-6.431.829-8.084 2.654-1.607 1.773-1.603 3.773-1.565 4.339v41.307c-9.478-12.677-15.096-28.398-15.096-45.408 0-6.263.781-12.48 2.287-18.501h28.541c.117.009.318.019.582.019 1.239 0 3.874-.236 5.816-2.06 1.579-1.482 2.323-3.594 2.214-6.277l-.037.001c.161-1.622.142-5.616.059-16.507 3.146-.778 5.494-3.603 5.494-6.985 0-3.979-3.237-7.216-7.216-7.216s-7.216 3.237-7.216 7.216c0 3.349 2.303 6.146 5.401 6.957.04 6.006.07 13.665.023 15.836l-.072.072.032.771c.065 1.604-.301 2.796-1.089 3.545-1.374 1.308-3.719 1.107-3.736 1.105l-27.793-.009c.718-2.372 1.512-4.724 2.456-7.006 9.032-21.819 27.296-37.718 49.199-43.99l.002 22.777c-.011.212-.234 5.234 2.928 8.533 1.776 1.853 4.171 2.767 7.187 2.751h16.493l.179-.009c.058-.002 1.449-.107 2.638 1.062 1.515 1.488 2.171 4.444 1.895 8.666v33.25c-3.089.816-5.384 3.609-5.384 6.951 0 3.979 3.237 7.217 7.216 7.217s7.216-3.238 7.216-7.217c0-3.389-2.357-6.22-5.513-6.991l-.003-33.093c.352-5.308-.67-9.141-3.038-11.392-2.167-2.061-4.646-2.027-5.283-1.979H88.781c-2.052-.016-3.517-.52-4.605-1.649-2.105-2.181-1.964-5.886-1.961-6.009v-10.9h24.899c.794 3.122 3.606 5.449 6.971 5.449 3.979 0 7.216-3.237 7.216-7.216s-3.237-7.216-7.216-7.216c-3.366 0-6.178 2.326-6.971 5.448H82.215v-9.362a76.511 76.511 0 0 1 17.504-2.029c11.799 0 22.978 2.704 32.951 7.524v23.964c-3.122.794-5.448 3.606-5.448 6.971 0 3.979 3.237 7.216 7.216 7.216s7.216-3.237 7.216-7.216c0-3.366-2.326-6.178-5.449-6.971V33.702a76.333 76.333 0 0 1 14.146 10.034l.003 31.927c-.009.154-.175 3.799 2.208 6.446 1.443 1.604 3.451 2.481 5.965 2.608l.173.002.066-.002c.407-.016 1.674-.042 2.476.761.42.42.68 1.061.81 1.873-3.07.83-5.347 3.611-5.347 6.94 0 3.979 3.237 7.216 7.216 7.216s7.216-3.237 7.216-7.216c0-3.395-2.364-6.23-5.527-6.996-.194-1.801-.809-3.256-1.867-4.315-1.243-1.244-2.941-1.859-5.038-1.794-4.792-.243-4.858-4.494-4.82-5.429V47.113c13.481 13.719 21.817 32.51 21.817 53.218a75.539 75.539 0 0 1-5.413 28.11l-19.841.003c-1.596.119-6.178.003-8.103-1.795-.566-.528-.83-1.153-.83-1.968V93.193c3.122-.794 5.449-3.606 5.449-6.971 0-3.979-3.237-7.216-7.216-7.216s-7.216 3.237-7.216 7.216c0 3.366 2.326 6.178 5.449 6.971v31.488c0 1.788.678 3.364 1.958 4.557 2.631 2.451 7.209 2.776 9.417 2.776a17.5 17.5 0 0 0 1.216-.038h18.2a76.349 76.349 0 0 1-18.936 25.396zm-24.518-14.446a3.684 3.684 0 0 1-3.681-3.68c0-2.03 1.651-3.682 3.681-3.682s3.681 1.652 3.681 3.682a3.685 3.685 0 0 1-3.681 3.68zm-54.127-12.688c0 2.03-1.651 3.68-3.681 3.68a3.684 3.684 0 0 1-3.681-3.68c0-2.03 1.651-3.68 3.681-3.68 2.03 0 3.681 1.65 3.681 3.68zm7.014-51.579a3.685 3.685 0 0 1 3.68-3.681 3.685 3.685 0 0 1 3.681 3.681 3.685 3.685 0 0 1-3.681 3.681 3.685 3.685 0 0 1-3.68-3.681zM57.792 50.02a3.685 3.685 0 0 1 3.68-3.681c2.03 0 3.681 1.651 3.681 3.681s-1.651 3.681-3.681 3.681a3.685 3.685 0 0 1-3.68-3.681zm57.723 61.261a3.686 3.686 0 0 1-3.681 3.682c-2.029 0-3.68-1.652-3.68-3.682s1.651-3.68 3.68-3.68c2.03 0 3.681 1.65 3.681 3.68zm-5.111-73.776a3.685 3.685 0 0 1 3.681-3.68 3.685 3.685 0 0 1 3.681 3.68 3.685 3.685 0 0 1-3.681 3.681 3.685 3.685 0 0 1-3.681-3.681zm57.199 56.786a3.685 3.685 0 0 1-3.681 3.68 3.684 3.684 0 0 1-3.68-3.68 3.685 3.685 0 0 1 3.68-3.681 3.685 3.685 0 0 1 3.681 3.681zm-27.854-4.388c-2.03 0-3.681-1.651-3.681-3.681s1.651-3.681 3.681-3.681c2.03 0 3.681 1.651 3.681 3.681s-1.651 3.681-3.681 3.681z" fill="#00FF00" data-color="1"/>
    </g>
</svg>