<svg width="16" height="16" viewBox="0 0 16 16" fill="none" xmlns="http://www.w3.org/2000/svg">
<path d="M7.24726 1.125V5.91788C7.24726 6.7537 7.63898 7.1521 8.4748 7.1521H13.2025V13.0811C13.2025 14.4393 12.5299 15.125 11.1781 15.125H4.2436C2.8982 15.125 2.21924 14.446 2.21924 13.0811V3.17527C2.21924 1.81706 2.8982 1.125 4.24332 1.125H7.24726ZM10.6362 8.62148C10.5845 8.56971 10.5231 8.52865 10.4554 8.50063C10.3878 8.47261 10.3153 8.45819 10.2421 8.45819C10.169 8.45819 10.0965 8.47261 10.0289 8.50063C9.96124 8.52865 9.8998 8.56971 9.84805 8.62148L6.85108 11.6187L6.43874 11.979L6.06318 11.6187L5.01617 10.572C4.91108 10.4705 4.77033 10.4143 4.62423 10.4156C4.47813 10.4169 4.33837 10.4755 4.23506 10.5788C4.13175 10.6821 4.07315 10.8219 4.07188 10.968C4.07061 11.1141 4.12677 11.2548 4.22827 11.3599L6.06318 13.1948C6.16767 13.2993 6.30938 13.358 6.45713 13.358C6.60488 13.358 6.74659 13.2993 6.85108 13.1948L10.6362 9.40938C10.7407 9.30488 10.7994 9.16318 10.7994 9.01543C10.7994 8.86767 10.7407 8.72597 10.6362 8.62148ZM8.13518 1.1966C8.40961 1.24257 8.68375 1.43202 8.98409 1.74546L12.5887 5.40858C12.8955 5.72842 13.0846 5.98976 13.1306 6.2575H8.49458C8.25916 6.2575 8.13518 6.13993 8.13518 5.90478V1.1966Z" fill="black"/>
</svg>
