<svg width="16" height="16" viewBox="0 0 16 16" fill="none" xmlns="http://www.w3.org/2000/svg">
<path d="M2.54732 3H13.4527C14.4815 3 15 3.4856 15 4.47325V11.4033C15 12.3827 14.4815 12.8765 13.4527 12.8765H2.54732C1.51852 12.8765 1 12.3827 1 11.4033V4.47325C1 3.4856 1.51852 3 2.54732 3ZM7.99588 10.0782L13.5432 5.52675C13.7407 5.36214 13.8971 4.98354 13.6502 4.64609C13.4115 4.30864 12.9753 4.30041 12.6872 4.50617L7.99588 7.68313L3.31276 4.50617C3.02469 4.30041 2.58848 4.30864 2.34979 4.64609C2.10288 4.98354 2.25926 5.36214 2.45679 5.52675L7.99588 10.0782Z" fill="black"/>
</svg>
