<svg width="16" height="16" viewBox="0 0 16 16" fill="none" xmlns="http://www.w3.org/2000/svg">
<path d="M8 1C6.74933 1 5.73433 2.00333 5.68417 3.24233C4.63829 3.68899 3.74704 4.43363 3.12153 5.38341C2.49602 6.33319 2.16393 7.44608 2.16667 8.58333C2.16667 8.6825 2.162 8.79333 2.16667 8.91175C1.47542 9.31775 1 10.0621 1 10.9167C1 12.1983 2.05175 13.25 3.33333 13.25C3.66875 13.25 3.9925 13.1788 4.28125 13.0493C5.29217 13.8987 6.6105 14.4167 8 14.4167C9.3895 14.4167 10.7078 13.8987 11.7187 13.0493C12.0172 13.1818 12.3401 13.2502 12.6667 13.25C13.9482 13.25 15 12.1983 15 10.9167C15 10.0533 14.5187 9.29675 13.8158 8.8925C13.8246 8.79917 13.8333 8.70583 13.8333 8.58333C13.8361 7.44608 13.504 6.33319 12.8785 5.38341C12.253 4.43363 11.3617 3.68899 10.3158 3.24233C10.2651 2.00333 9.25008 1 8 1ZM8 2.16667C8.651 2.16667 9.16667 2.68233 9.16667 3.33333C9.16667 3.98433 8.651 4.5 8 4.5C7.349 4.5 6.83333 3.98433 6.83333 3.33333C6.83333 2.68233 7.349 2.16667 8 2.16667ZM5.94083 4.409C6.33167 5.15217 7.1075 5.66667 8 5.66667C8.8925 5.66667 9.66833 5.15217 10.0592 4.409C10.8422 4.78944 11.5021 5.38284 11.9633 6.12116C12.4245 6.85947 12.6682 7.71281 12.6667 8.58333C11.3851 8.58333 10.3333 9.63508 10.3333 10.9167C10.3333 11.4388 10.5142 11.9118 10.8076 12.3021C9.99797 12.9117 9.01343 13.2441 8 13.25C6.98657 13.2441 6.00203 12.9117 5.19242 12.3021C5.4977 11.9045 5.66429 11.4179 5.66667 10.9167C5.66667 9.63508 4.61492 8.58333 3.33333 8.58333C3.33333 6.76333 4.3775 5.16733 5.94083 4.409ZM3.33333 9.75C3.98433 9.75 4.5 10.2657 4.5 10.9167C4.5 11.5677 3.98433 12.0833 3.33333 12.0833C2.68233 12.0833 2.16667 11.5677 2.16667 10.9167C2.16667 10.2657 2.68233 9.75 3.33333 9.75ZM12.6667 9.75C13.3177 9.75 13.8333 10.2657 13.8333 10.9167C13.8333 11.5677 13.3177 12.0833 12.6667 12.0833C12.0157 12.0833 11.5 11.5677 11.5 10.9167C11.5 10.2657 12.0157 9.75 12.6667 9.75Z" fill="black"/>
</svg>
