<svg width="16" height="16" viewBox="0 0 16 16" fill="none" xmlns="http://www.w3.org/2000/svg">
<path d="M15 2.12778C15 1.50556 14.4944 1 13.8722 1H2.12778C1.50556 1 1 1.50556 1 2.12778C1 2.4 1.10111 2.67222 1.28778 2.87444L7.22222 9.55556V13.4444H4.11111C3.68333 13.4444 3.33333 13.7944 3.33333 14.2222C3.33333 14.65 3.68333 15 4.11111 15H11.8889C12.3167 15 12.6667 14.65 12.6667 14.2222C12.6667 13.7944 12.3167 13.4444 11.8889 13.4444H8.77778V9.55556L14.7122 2.87444C14.8989 2.67222 15 2.4 15 2.12778ZM4.44556 4.11111L3.06889 2.55556H12.9389L11.5544 4.11111H4.44556Z" fill="black"/>
</svg>
