<svg width="16" height="16" viewBox="0 0 16 16" fill="none" xmlns="http://www.w3.org/2000/svg">
<path d="M8.48192 14.2829L2.52148 8.32251V9.54017C2.52148 9.86285 2.64934 10.1733 2.88069 10.3986L7.62347 15.1414C8.09836 15.6163 8.87157 15.6163 9.34646 15.1414L13.1273 11.3606C13.6022 10.8857 13.6022 10.1125 13.1273 9.63758L8.48192 14.2829Z" fill="black"/>
<path d="M7.62347 12.0973C7.86092 12.3347 8.17142 12.4565 8.48192 12.4565C8.79242 12.4565 9.10293 12.3347 9.34037 12.0973L13.1212 8.31644C13.5961 7.84156 13.5961 7.06834 13.1212 6.59346L8.37842 1.85068C8.15315 1.62541 7.84265 1.49756 7.51997 1.49756H3.73914C3.06943 1.49756 2.52148 2.0455 2.52148 2.71522V6.49604C2.52148 6.81872 2.64934 7.12923 2.88069 7.35449L7.62347 12.0973ZM3.73914 2.71522H7.51997L12.2627 7.45799L8.48192 11.2388L3.73914 6.49604V2.71522Z" fill="black"/>
<path d="M5.10901 4.84571C5.52923 4.84571 5.86988 4.50506 5.86988 4.08484C5.86988 3.66463 5.52923 3.32397 5.10901 3.32397C4.6888 3.32397 4.34814 3.66463 4.34814 4.08484C4.34814 4.50506 4.6888 4.84571 5.10901 4.84571Z" fill="black"/>
</svg>
