<svg width="24" height="24" viewBox="0 0 24 24" fill="none" xmlns="http://www.w3.org/2000/svg">
<path d="M8.5078 13.653L10.4778 15.373V6.50002C10.4778 5.67002 11.1508 4.99902 11.9818 4.99902C12.8118 4.99902 13.4848 5.67002 13.4848 6.49902L13.4888 11.262L16.1298 11.689C17.8348 11.949 18.6878 12.078 19.2878 12.442C20.2798 13.043 20.9978 13.999 20.9978 15.265C20.9978 16.183 20.7748 16.799 20.2288 18.455C19.8828 19.505 19.7098 20.03 19.4288 20.445C18.9668 21.1277 18.2811 21.6278 17.4898 21.859C17.0108 21.999 16.4638 21.999 15.3698 21.999H14.4428C12.9888 21.999 12.2608 21.999 11.6128 21.729C11.497 21.6797 11.3835 21.625 11.2728 21.565C10.6588 21.227 10.1998 20.655 9.2828 19.513L6.3128 15.815C6.09099 15.538 5.96954 15.1941 5.96827 14.8392C5.967 14.4844 6.08598 14.1396 6.3058 13.861C6.43339 13.6981 6.5928 13.5628 6.77432 13.4635C6.95585 13.3641 7.1557 13.3028 7.3617 13.2831C7.56771 13.2635 7.77555 13.286 7.97259 13.3492C8.16962 13.4125 8.35172 13.5151 8.5078 13.651" stroke="#6D6D6D" stroke-width="1.5" stroke-linecap="round" stroke-linejoin="round"/>
<path d="M13.923 9.50003C14.701 9.07153 15.3142 8.39614 15.6658 7.58044C16.0174 6.76475 16.0873 5.8552 15.8645 4.99535C15.6418 4.1355 15.139 3.37432 14.4356 2.83193C13.7322 2.28955 12.8682 1.99684 11.98 2.00003C11.0919 1.99707 10.228 2.28993 9.52478 2.8324C8.82155 3.37486 8.31896 4.13605 8.09633 4.99584C7.8737 5.85563 7.9437 6.76508 8.29529 7.58067C8.64688 8.39627 9.26003 9.07157 10.038 9.50003M7.818 6.02303H3.001M3.001 6.02303C3.001 6.49303 3.516 6.71703 3.838 7.01103L5.018 8.01003M3.001 6.02303C3.001 5.55303 3.523 5.29903 3.837 5.00103L5.017 3.99003" stroke="#6D6D6D" stroke-width="1.5" stroke-linecap="round" stroke-linejoin="round"/>
</svg>
