<svg width="16" height="16" viewBox="0 0 16 16" fill="none" xmlns="http://www.w3.org/2000/svg">
<path fill-rule="evenodd" clip-rule="evenodd" d="M3.65676 1C3.66857 1 3.68042 1 3.69231 1C3.70419 1 3.71604 1 3.72784 1C4.20539 0.999974 4.61684 0.999951 4.94619 1.04431C5.29893 1.09181 5.63724 1.19896 5.91122 1.47383C6.18561 1.74795 6.29278 2.08585 6.34031 2.43867C6.36823 2.64589 6.37856 2.8856 6.38239 3.15385H8C8.29738 3.15385 8.53846 3.39493 8.53846 3.69231C8.53846 3.98969 8.29738 4.23077 8 4.23077H6.38239C6.37857 4.49911 6.36823 4.73891 6.34031 4.94619C6.29281 5.29893 6.18566 5.63724 5.91079 5.91122C5.63667 6.18561 5.29877 6.29278 4.94595 6.34031C4.61668 6.38467 4.20538 6.38464 3.72786 6.38462H3.65678C3.17923 6.38464 2.76777 6.38467 2.43843 6.34031C2.08569 6.29281 1.74738 6.18566 1.47339 5.91079C1.19901 5.63667 1.09184 5.29877 1.04431 4.94595C0.999951 4.61668 0.999974 4.20538 1 3.72786C1 3.71605 1 3.7042 1 3.69231C1 3.68042 1 3.66858 1 3.65678C0.999974 3.17923 0.999951 2.76777 1.04431 2.43843C1.09181 2.08569 1.19896 1.74738 1.47383 1.47339C1.74795 1.19901 2.08585 1.09184 2.43867 1.04431C2.76794 0.999951 3.17923 0.999974 3.65676 1ZM2.58246 2.11159C2.34936 2.143 2.27649 2.19364 2.23554 2.23468L2.23425 2.23598C2.1937 2.27634 2.14303 2.3488 2.11159 2.58217C2.07807 2.83106 2.07693 3.1691 2.07693 3.69231C2.07693 4.21553 2.07807 4.55337 2.11159 4.80216C2.143 5.03526 2.19364 5.10813 2.23468 5.14908L2.23598 5.15038C2.27634 5.19092 2.3488 5.24159 2.58217 5.27302C2.83106 5.30655 3.1691 5.30769 3.69231 5.30769C4.21553 5.30769 4.55337 5.30655 4.80216 5.27303C5.03526 5.24162 5.10813 5.19098 5.14908 5.14994L5.15038 5.14864C5.19092 5.10828 5.24159 5.03582 5.27302 4.80245C5.30655 4.55356 5.30769 4.21552 5.30769 3.69231C5.30769 3.16909 5.30655 2.83125 5.27303 2.58246C5.24162 2.34936 5.19098 2.27649 5.14994 2.23554L5.14864 2.23425C5.10828 2.1937 5.03582 2.14303 4.80245 2.11159C4.55356 2.07807 4.21552 2.07693 3.69231 2.07693C3.16909 2.07693 2.83125 2.07807 2.58246 2.11159ZM12.2721 1H12.3432C12.8208 0.999974 13.2322 0.999951 13.5616 1.04431C13.9143 1.09181 14.2526 1.19896 14.5266 1.47383C14.801 1.74795 14.9082 2.08585 14.9557 2.43867C15.0001 2.76794 15 3.17923 15 3.65675V3.72783C15 4.20538 15.0001 4.61684 14.9557 4.94619C14.9082 5.29893 14.801 5.63724 14.5262 5.91122C14.2521 6.18561 13.9142 6.29278 13.5613 6.34031C13.3541 6.36823 13.1144 6.37856 12.8462 6.38239V8C12.8462 8.29738 12.6051 8.53846 12.3077 8.53846C12.0103 8.53846 11.7692 8.29738 11.7692 8V6.38239C11.5009 6.37857 11.2611 6.36823 11.0538 6.34031C10.7011 6.29281 10.3628 6.18566 10.0888 5.91079C9.8144 5.63667 9.70723 5.29877 9.65969 4.94595C9.61533 4.61668 9.61536 4.20539 9.61538 3.72787V3.65677C9.61536 3.17923 9.61533 2.76777 9.65969 2.43843C9.7072 2.08569 9.81434 1.74738 10.0892 1.47339C10.3633 1.19901 10.7012 1.09184 11.0541 1.04431C11.3833 0.999951 11.7946 0.999974 12.2721 1ZM11.1978 2.11159C10.9647 2.143 10.8919 2.19364 10.8509 2.23468L10.8496 2.23598C10.8091 2.27634 10.7584 2.3488 10.727 2.58217C10.6935 2.83106 10.6923 3.1691 10.6923 3.69231C10.6923 4.21553 10.6935 4.55337 10.727 4.80216C10.7584 5.03526 10.809 5.10813 10.8501 5.14908L10.8514 5.15037C10.8917 5.19092 10.9642 5.24159 11.1975 5.27302C11.4464 5.30655 11.7845 5.30769 12.3077 5.30769C12.8309 5.30769 13.1687 5.30655 13.4175 5.27303C13.6506 5.24162 13.7235 5.19098 13.7645 5.14994L13.7658 5.14864C13.8063 5.10828 13.857 5.03582 13.8884 4.80245C13.9219 4.55356 13.9231 4.21552 13.9231 3.69231C13.9231 3.16909 13.9219 2.83125 13.8884 2.58246C13.857 2.34936 13.8064 2.27649 13.7653 2.23554L13.764 2.23424C13.7237 2.1937 13.6512 2.14303 13.4178 2.11159C13.1689 2.07807 12.8309 2.07693 12.3077 2.07693C11.7845 2.07693 11.4466 2.07807 11.1978 2.11159ZM3.69231 7.46154C3.98969 7.46154 4.23077 7.70262 4.23077 8V9.61761C4.49911 9.62144 4.73891 9.63177 4.94619 9.65969C5.29893 9.7072 5.63724 9.81434 5.91122 10.0892C6.18561 10.3633 6.29278 10.7012 6.34031 11.0541C6.38467 11.3833 6.38464 11.7946 6.38462 12.2721V12.3432C6.38464 12.8208 6.38467 13.2322 6.34031 13.5616C6.29281 13.9143 6.18566 14.2526 5.91079 14.5266C5.63667 14.801 5.29877 14.9082 4.94595 14.9557C4.61668 15.0001 4.20539 15 3.72787 15H3.65679C3.17924 15 2.76778 15.0001 2.43843 14.9557C2.08569 14.9082 1.74738 14.801 1.47339 14.5262C1.19901 14.2521 1.09184 13.9142 1.04431 13.5613C0.999951 13.2321 0.999974 12.8208 1 12.3432V12.2722C0.999974 11.7946 0.999951 11.3832 1.04431 11.0538C1.09181 10.7011 1.19896 10.3628 1.47383 10.0888C1.74795 9.8144 2.08585 9.70723 2.43867 9.65969C2.64589 9.63178 2.8856 9.62144 3.15385 9.61761V8C3.15385 7.70262 3.39493 7.46154 3.69231 7.46154ZM2.58246 10.727C2.34936 10.7584 2.27649 10.809 2.23554 10.8501L2.23424 10.8514C2.1937 10.8917 2.14303 10.9642 2.11159 11.1976C2.07807 11.4464 2.07693 11.7845 2.07693 12.3077C2.07693 12.8309 2.07807 13.1687 2.11159 13.4175C2.143 13.6506 2.19364 13.7235 2.23468 13.7645L2.23598 13.7658C2.27634 13.8063 2.3488 13.857 2.58217 13.8884C2.83106 13.9219 3.1691 13.9231 3.69231 13.9231C4.21553 13.9231 4.55337 13.9219 4.80216 13.8884C5.03526 13.857 5.10813 13.8064 5.14908 13.7653L5.15038 13.764C5.19092 13.7237 5.24159 13.6512 5.27302 13.4178C5.30655 13.1689 5.30769 12.8309 5.30769 12.3077C5.30769 11.7845 5.30655 11.4466 5.27303 11.1978C5.24162 10.9647 5.19098 10.8919 5.14994 10.8509L5.14864 10.8496C5.10828 10.8091 5.03582 10.7584 4.80245 10.727C4.55356 10.6935 4.21552 10.6923 3.69231 10.6923C3.16909 10.6923 2.83125 10.6935 2.58246 10.727ZM12.2721 9.61538H12.3432C12.8208 9.61536 13.2322 9.61533 13.5616 9.65969C13.9143 9.7072 14.2526 9.81434 14.5266 10.0892C14.8011 10.3634 14.9082 10.7016 14.9557 11.0543C15.0001 11.3837 15 11.795 15 12.2722V12.3432C15 12.8204 15.0001 13.2317 14.9557 13.561C14.9082 13.9139 14.801 14.2522 14.5264 14.5264C14.2522 14.801 13.9139 14.9082 13.561 14.9557C13.2317 15.0001 12.8204 15 12.3432 15H12.2722C11.795 15 11.3837 15.0001 11.0543 14.9557C10.7013 14.9081 10.3629 14.8009 10.0886 14.526C9.81434 14.2519 9.70721 13.9141 9.65969 13.5613C9.63178 13.3541 9.62144 13.1144 9.61761 12.8462H8C7.70262 12.8462 7.46154 12.6051 7.46154 12.3077C7.46154 12.0103 7.70262 11.7692 8 11.7692H9.61761C9.62144 11.5009 9.63177 11.2611 9.65969 11.0538C9.7072 10.7011 9.81434 10.3628 10.0892 10.0888C10.3633 9.8144 10.7012 9.70723 11.0541 9.65969C11.3833 9.61533 11.7946 9.61536 12.2721 9.61538ZM11.1978 10.727C10.9647 10.7584 10.8919 10.809 10.8509 10.8501L10.8496 10.8514C10.8091 10.8917 10.7584 10.9642 10.727 11.1975C10.6935 11.4464 10.6923 11.7845 10.6923 12.3077C10.6923 12.8309 10.6935 13.1687 10.727 13.4175C10.7584 13.6506 10.809 13.7235 10.8501 13.7645L10.8509 13.7653C10.8918 13.8063 10.9648 13.857 11.1981 13.8884C11.447 13.9219 11.7849 13.9231 12.3077 13.9231C12.8305 13.9231 13.1684 13.9219 13.4173 13.8884C13.6506 13.857 13.7236 13.8063 13.7645 13.7653L13.7653 13.7645C13.8063 13.7236 13.857 13.6506 13.8884 13.4173C13.9219 13.1684 13.9231 12.8305 13.9231 12.3077C13.9231 11.7849 13.9219 11.447 13.8884 11.1981C13.857 10.9648 13.8063 10.8918 13.7653 10.8509L13.764 10.8496C13.7237 10.8091 13.6512 10.7584 13.4178 10.727C13.1689 10.6935 12.8309 10.6923 12.3077 10.6923C11.7845 10.6923 11.4466 10.6935 11.1978 10.727Z" fill="black"/>
</svg>
