<svg width="16" height="16" viewBox="0 0 16 16" fill="none" xmlns="http://www.w3.org/2000/svg">
<path fill-rule="evenodd" clip-rule="evenodd" d="M5.13636 2C5.80013 1.99968 6.4542 2.15923 7.04327 2.46515C7.39463 2.64763 7.71669 2.87897 8.00036 3.15123C8.74305 2.43878 9.75226 2 10.8636 2C13.148 2 15 3.85196 15 6.13636C15 6.48782 14.7151 6.77273 14.3636 6.77273C14.0122 6.77273 13.7273 6.48782 13.7273 6.13636C13.7273 4.55486 12.4451 3.27273 10.8636 3.27273C9.89569 3.27273 9.03941 3.75249 8.52037 4.48985C8.40111 4.65927 8.20683 4.76002 7.99965 4.75991C7.79246 4.75979 7.5983 4.65882 7.47922 4.48927C7.21517 4.11327 6.86443 3.8064 6.45669 3.59465C6.04894 3.38289 5.59618 3.27247 5.13672 3.27273L5.13636 3.27273C3.55486 3.27273 2.27273 4.55486 2.27273 6.13636C2.27273 7.64193 3.17257 9.15948 4.43514 10.4345C5.61014 11.6211 7.00522 12.5013 7.99995 12.8824C8.28812 12.772 8.61486 12.6179 8.96524 12.4219C9.27196 12.2503 9.6597 12.3599 9.83128 12.6666C10.0029 12.9733 9.89331 13.3611 9.58658 13.5326C9.09965 13.805 8.62728 14.0203 8.20078 14.1621C8.07047 14.2055 7.92965 14.2055 7.79933 14.1622C6.5732 13.7547 4.89939 12.7122 3.53077 11.33C2.16834 9.95415 1 8.1308 1 6.13636C1 3.85208 2.85176 2.00019 5.136 2M11.0867 8.18712C11.3599 7.96605 11.7606 8.00831 11.9816 8.28152L12.5813 9.02258L13.1811 8.28149C13.4022 8.00829 13.8029 7.96606 14.0761 8.18715C14.3493 8.40825 14.3915 8.80895 14.1704 9.08215L13.3999 10.0342L14.1701 10.9861C14.3912 11.2593 14.3489 11.66 14.0757 11.8811C13.8025 12.1021 13.4018 12.0599 13.1807 11.7867L12.5812 11.0458L11.9816 11.7867C11.7605 12.0599 11.3598 12.1021 11.0866 11.881C10.8134 11.6599 10.7712 11.2592 10.9923 10.986L11.7626 10.0342L10.9923 9.08211C10.7712 8.8089 10.8134 8.4082 11.0867 8.18712Z" fill="black"/>
</svg>
