<svg width="16" height="16" viewBox="0 0 16 16" fill="none" xmlns="http://www.w3.org/2000/svg">
<path d="M8 1C8.26273 1 8.52173 1.01423 8.777 1.0427C8.86837 1.05281 8.95686 1.08082 9.03741 1.12513C9.11796 1.16944 9.18899 1.22918 9.24645 1.30094C9.30391 1.3727 9.34668 1.45508 9.3723 1.54337C9.39793 1.63166 9.40591 1.72413 9.3958 1.8155C9.38569 1.90687 9.35768 1.99536 9.31337 2.07591C9.26906 2.15646 9.20932 2.22749 9.13756 2.28495C9.0658 2.34241 8.98342 2.38518 8.89513 2.4108C8.80684 2.43643 8.71437 2.44441 8.623 2.4343C7.46943 2.30525 6.30427 2.53786 5.28867 3.09995C4.27308 3.66203 3.45725 4.52582 2.95403 5.57184C2.4508 6.61785 2.28506 7.79439 2.47972 8.93871C2.67439 10.083 3.21983 11.1386 4.04062 11.9594C4.8614 12.7802 5.91696 13.3256 7.06129 13.5203C8.20561 13.7149 9.38215 13.5492 10.4282 13.046C11.4742 12.5428 12.338 11.7269 12.9001 10.7113C13.4621 9.69573 13.6947 8.53057 13.5657 7.377C13.5556 7.28563 13.5636 7.19316 13.5892 7.10487C13.6148 7.01658 13.6576 6.9342 13.715 6.86244C13.8311 6.71751 14 6.62462 14.1845 6.6042C14.369 6.58378 14.5541 6.6375 14.6991 6.75355C14.7708 6.81101 14.8306 6.88204 14.8749 6.96259C14.9192 7.04314 14.9472 7.13163 14.9573 7.223C14.9853 7.47827 14.9995 7.73727 15 8C15 11.8661 11.8661 15 8 15C4.1339 15 1 11.8661 1 8C1 4.1339 4.1339 1 8 1ZM7.9776 5.1139C8.02373 5.29361 7.99664 5.48428 7.90226 5.64401C7.80789 5.80375 7.65396 5.91949 7.4743 5.9658C6.98071 6.0951 6.55102 6.39957 6.26543 6.8224C5.97983 7.24522 5.85783 7.75752 5.92219 8.26369C5.98655 8.76986 6.23288 9.23532 6.61522 9.57321C6.99755 9.9111 7.48976 10.0983 8 10.1C8.46571 10.1002 8.91828 9.94558 9.28652 9.66047C9.65475 9.37535 9.91777 8.97592 10.0342 8.525C10.0838 8.34885 10.2004 8.19913 10.3591 8.10792C10.5178 8.01671 10.7058 7.99126 10.883 8.03703C11.0602 8.08279 11.2124 8.19612 11.3071 8.35275C11.4017 8.50938 11.4313 8.69685 11.3894 8.875C11.1747 9.69815 10.6676 10.415 9.96291 10.8915C9.25823 11.3681 8.40415 11.5718 7.56023 11.4647C6.71631 11.3575 5.94028 10.9467 5.3771 10.3091C4.81393 9.67152 4.50215 8.8507 4.5 8C4.49988 7.22397 4.75767 6.46991 5.23284 5.85637C5.70801 5.24283 6.37361 4.80461 7.125 4.6106C7.21403 4.58765 7.30671 4.58247 7.39774 4.59534C7.48878 4.60822 7.57638 4.6389 7.65555 4.68564C7.73473 4.73238 7.80392 4.79425 7.85918 4.86774C7.91443 4.94122 7.95467 5.02486 7.9776 5.1139ZM12.5528 1.0889C12.6806 1.14188 12.7898 1.23152 12.8666 1.34651C12.9435 1.4615 12.9846 1.59668 12.9847 1.735V3.016H14.265C14.4034 3.01603 14.5387 3.0571 14.6538 3.13402C14.7689 3.21094 14.8586 3.32025 14.9116 3.44814C14.9645 3.57603 14.9784 3.71676 14.9514 3.85252C14.9244 3.98829 14.8578 4.113 14.7599 4.2109L12.284 6.684C12.1528 6.81528 11.9747 6.88906 11.7891 6.8891H10.1L8.8204 8.1694C8.68905 8.30075 8.5109 8.37454 8.32515 8.37454C8.1394 8.37454 7.96125 8.30075 7.8299 8.1694C7.69855 8.03805 7.62476 7.8599 7.62476 7.67415C7.62476 7.4884 7.69855 7.31025 7.8299 7.1789L9.1102 5.9V4.2102C9.11024 4.02456 9.18402 3.84654 9.3153 3.7153L11.7898 1.2401C11.8877 1.14215 12.0124 1.07543 12.1483 1.04839C12.2841 1.02135 12.4249 1.03521 12.5528 1.0882M11.5847 3.4241L10.5102 4.5V5.4898H11.5L12.5752 4.4153H12.2847C12.099 4.4153 11.921 4.34155 11.7897 4.21027C11.6584 4.079 11.5847 3.90095 11.5847 3.7153V3.4241Z" fill="black"/>
</svg>
