<svg width="16" height="16" viewBox="0 0 16 16" fill="none" xmlns="http://www.w3.org/2000/svg">
<g clip-path="url(#clip0_1772_664)">
<path fill-rule="evenodd" clip-rule="evenodd" d="M11.5353 0.646447C11.7306 0.451184 12.0472 0.451184 12.2424 0.646447L13.7976 2.20156C13.7977 2.20171 13.7978 2.20185 13.798 2.202C13.7981 2.20215 13.7983 2.2023 13.7984 2.20245L15.3536 3.75756C15.5488 3.95282 15.5488 4.2694 15.3536 4.46466C15.1583 4.65993 14.8417 4.65993 14.6464 4.46466L13.4444 3.26266L10.6516 6.05556L11.8534 7.25744C11.8535 7.25748 11.8535 7.25752 11.8536 7.25756C11.8536 7.2576 11.8536 7.25764 11.8537 7.25768L12.6313 8.03534C12.8266 8.2306 12.8266 8.54718 12.6313 8.74244C12.4361 8.93771 12.1195 8.93771 11.9242 8.74244L11.5 8.31822L6.798 13.0202C6.70423 13.114 6.57705 13.1667 6.44444 13.1667H3.54044L1.35355 15.3536C1.15829 15.5488 0.841709 15.5488 0.646447 15.3536C0.451184 15.1583 0.451184 14.8417 0.646447 14.6464L2.83333 12.4596V9.55556C2.83333 9.42295 2.88601 9.29577 2.97978 9.202L4.14619 8.03559C4.14628 8.03551 4.14636 8.03542 4.14645 8.03534C4.14653 8.03525 4.14662 8.03516 4.1467 8.03508L6.47962 5.70217C6.47967 5.70211 6.47973 5.70206 6.47978 5.702C6.47983 5.70195 6.47989 5.70189 6.47994 5.70184L7.68178 4.5L7.25756 4.07578C7.0623 3.88051 7.0623 3.56393 7.25756 3.36867C7.45282 3.17341 7.7694 3.17341 7.96466 3.36867L8.74218 4.14618C8.74226 4.14627 8.74235 4.14636 8.74244 4.14645C8.74253 4.14654 8.74262 4.14663 8.74271 4.14671L9.94444 5.34845L12.7373 2.55556L11.5353 1.35355C11.3401 1.15829 11.3401 0.841709 11.5353 0.646447ZM9.59048 6.40869L8.38889 5.20711L7.54044 6.05556L8.35355 6.86867C8.54882 7.06393 8.54882 7.38051 8.35355 7.57578C8.15829 7.77104 7.84171 7.77104 7.64645 7.57578L6.83333 6.76266L5.20711 8.38889L6.02022 9.202C6.21548 9.39726 6.21548 9.71385 6.02022 9.90911C5.82496 10.1044 5.50838 10.1044 5.31311 9.90911L4.5 9.096L3.83333 9.76266V12.1667H6.23734L10.7929 7.61111L9.59131 6.40952C9.59117 6.40939 9.59103 6.40925 9.59089 6.40911C9.59075 6.40897 9.59061 6.40883 9.59048 6.40869Z" fill="black"/>
</g>
<defs>
<clipPath id="clip0_1772_664">
<rect width="16" height="16" fill="white"/>
</clipPath>
</defs>
</svg>
