<svg width="16" height="16" viewBox="0 0 16 16" fill="none" xmlns="http://www.w3.org/2000/svg">
<path d="M11.8 1C12.1713 1 12.5274 1.1475 12.7899 1.41005C13.0525 1.6726 13.2 2.0287 13.2 2.4V10.5102C13.1999 10.8815 13.0524 11.2375 12.7898 11.5L9.7 14.5898C9.43751 14.8524 9.08147 14.9999 8.7102 15H3.4C3.0287 15 2.6726 14.8525 2.41005 14.5899C2.1475 14.3274 2 13.9713 2 13.6V2.4C2 2.0287 2.1475 1.6726 2.41005 1.41005C2.6726 1.1475 3.0287 1 3.4 1H11.8ZM11.8 2.4H3.4V13.6H7.6V10.45C7.6 10.1715 7.71062 9.90445 7.90754 9.70754C8.10445 9.51062 8.37152 9.4 8.65 9.4H11.8V2.4ZM11.5102 10.8H9V13.3102L11.5102 10.8ZM6.2 7.3C6.38565 7.3 6.5637 7.37375 6.69497 7.50503C6.82625 7.6363 6.9 7.81435 6.9 8C6.9 8.18565 6.82625 8.3637 6.69497 8.49497C6.5637 8.62625 6.38565 8.7 6.2 8.7H5.5C5.31435 8.7 5.1363 8.62625 5.00503 8.49497C4.87375 8.3637 4.8 8.18565 4.8 8C4.8 7.81435 4.87375 7.6363 5.00503 7.50503C5.1363 7.37375 5.31435 7.3 5.5 7.3H6.2ZM9.7 4.5C9.88565 4.5 10.0637 4.57375 10.195 4.70503C10.3262 4.8363 10.4 5.01435 10.4 5.2C10.4 5.38565 10.3262 5.5637 10.195 5.69497C10.0637 5.82625 9.88565 5.9 9.7 5.9H5.5C5.31435 5.9 5.1363 5.82625 5.00503 5.69497C4.87375 5.5637 4.8 5.38565 4.8 5.2C4.8 5.01435 4.87375 4.8363 5.00503 4.70503C5.1363 4.57375 5.31435 4.5 5.5 4.5H9.7Z" fill="black"/>
</svg>
