<svg width="16" height="16" viewBox="0 0 16 16" fill="none" xmlns="http://www.w3.org/2000/svg">
<path d="M7.99988 5.5249C7.34348 5.5249 6.71396 5.78566 6.24981 6.24981C5.78566 6.71396 5.5249 7.34348 5.5249 7.99988C5.5249 8.65629 5.78566 9.28581 6.24981 9.74996C6.71396 10.2141 7.34348 10.4749 7.99988 10.4749C8.65629 10.4749 9.28581 10.2141 9.74996 9.74996C10.2141 9.28581 10.4749 8.65629 10.4749 7.99988C10.4749 7.34348 10.2141 6.71396 9.74996 6.24981C9.28581 5.78566 8.65629 5.5249 7.99988 5.5249Z" fill="black"/>
<path fill-rule="evenodd" clip-rule="evenodd" d="M4.0172 1.2087C6.66432 0.915458 9.33572 0.915458 11.9828 1.2087C13.429 1.37015 14.5949 2.50864 14.7647 3.96012C15.0784 6.64428 15.0784 9.35583 14.7647 12.04C14.5949 13.4915 13.429 14.63 11.9836 14.7922C9.33624 15.0855 6.66457 15.0855 4.0172 14.7922C2.57105 14.63 1.40515 13.4915 1.23532 12.0407C0.921559 9.35634 0.921559 6.64453 1.23532 3.96012C1.40515 2.50864 2.57105 1.37015 4.0172 1.2087ZM11.8077 3.43086C11.6057 3.43086 11.412 3.51109 11.2692 3.6539C11.1264 3.79672 11.0462 3.99042 11.0462 4.19239C11.0462 4.39436 11.1264 4.58806 11.2692 4.73087C11.412 4.87369 11.6057 4.95392 11.8077 4.95392C12.0097 4.95392 12.2034 4.87369 12.3462 4.73087C12.489 4.58806 12.5692 4.39436 12.5692 4.19239C12.5692 3.99042 12.489 3.79672 12.3462 3.6539C12.2034 3.51109 12.0097 3.43086 11.8077 3.43086ZM4.38274 8.00005C4.38274 7.04069 4.76385 6.12062 5.44222 5.44225C6.12059 4.76388 7.04066 4.38277 8.00002 4.38277C8.95938 4.38277 9.87945 4.76388 10.5578 5.44225C11.2362 6.12062 11.6173 7.04069 11.6173 8.00005C11.6173 8.95942 11.2362 9.87949 10.5578 10.5579C9.87945 11.2362 8.95938 11.6173 8.00002 11.6173C7.04066 11.6173 6.12059 11.2362 5.44222 10.5579C4.76385 9.87949 4.38274 8.95942 4.38274 8.00005Z" fill="black"/>
</svg>
