<svg width="16" height="16" viewBox="0 0 16 16" fill="none" xmlns="http://www.w3.org/2000/svg">
<path d="M13.4444 1C13.857 1 14.2527 1.16389 14.5444 1.45561C14.8361 1.74733 15 2.143 15 2.55556V13.4444C15 13.857 14.8361 14.2527 14.5444 14.5444C14.2527 14.8361 13.857 15 13.4444 15H2.55556C2.143 15 1.74733 14.8361 1.45561 14.5444C1.16389 14.2527 1 13.857 1 13.4444V2.55556C1 2.143 1.16389 1.74733 1.45561 1.45561C1.74733 1.16389 2.143 1 2.55556 1H13.4444ZM13.0556 13.0556V8.93333C13.0556 8.26086 12.7884 7.61593 12.3129 7.14042C11.8374 6.66492 11.1925 6.39778 10.52 6.39778C9.85889 6.39778 9.08889 6.80222 8.71556 7.40889V6.54556H6.54556V13.0556H8.71556V9.22111C8.71556 8.62222 9.19778 8.13222 9.79667 8.13222C10.0855 8.13222 10.3624 8.24694 10.5666 8.45115C10.7708 8.65536 10.8856 8.93232 10.8856 9.22111V13.0556H13.0556ZM4.01778 5.32444C4.36433 5.32444 4.69668 5.18678 4.94173 4.94173C5.18678 4.69668 5.32444 4.36433 5.32444 4.01778C5.32444 3.29444 4.74111 2.70333 4.01778 2.70333C3.66917 2.70333 3.33483 2.84182 3.08833 3.08833C2.84182 3.33483 2.70333 3.66917 2.70333 4.01778C2.70333 4.74111 3.29444 5.32444 4.01778 5.32444ZM5.09889 13.0556V6.54556H2.94444V13.0556H5.09889Z" fill="black"/>
</svg>
