<svg preserveAspectRatio="xMidYMid meet" data-bbox="44.5 50.499 111 99" viewBox="44.5 50.499 111 99" height="200" width="200" xmlns="http://www.w3.org/2000/svg" data-type="color" role="presentation" aria-hidden="true" aria-label=""><defs><style>#comp-lqwml4321 svg [data-color="1"] {fill: #63C19C;}</style></defs>
    <g>
        <path d="M129.272 79.684a1.904 1.904 0 0 0-2.197 1.583 1.913 1.913 0 0 0 1.584 2.196c13.332 2.163 23.01 13.55 23.01 27.074v34.77l-57.681.199V111.75c0-11.364-9.251-20.611-20.623-20.611-11.369 0-20.621 9.247-20.621 20.611v33.9l-4.412.015v-35.127c0-15.125 12.31-27.429 27.443-27.429h43.778v7.219a1.916 1.916 0 0 0 3.832 0V68.871h20.429a1.92 1.92 0 0 0 1.731-1.093 1.911 1.911 0 0 0-.247-2.031l-4.871-5.976 4.889-6.168a1.91 1.91 0 0 0 .222-2.023 1.913 1.913 0 0 0-1.724-1.081H121.47a1.916 1.916 0 0 0-1.916 1.915v26.865h-43.78c-17.243 0-31.274 14.022-31.274 31.259v37.047a1.915 1.915 0 0 0 1.916 1.914h.007l107.169-.369a1.915 1.915 0 0 0 1.908-1.915v-36.678c0-15.411-11.03-28.387-26.228-30.853zm-5.889-25.355h16.468l-3.385 4.271a1.912 1.912 0 0 0 .017 2.398l3.295 4.044h-16.395V54.329zM56.575 111.75c0-9.254 7.533-16.782 16.789-16.782 9.259 0 16.792 7.528 16.792 16.782v33.771l-33.581.116V111.75z" fill="#EF3F23" data-color="1"/>
    </g>
</svg>