<svg preserveAspectRatio="xMidYMid meet" data-bbox="20 52 159.902 96" viewBox="20 52 159.902 96" xmlns="http://www.w3.org/2000/svg" data-type="color" role="presentation" aria-hidden="true" aria-label=""><defs><style>#comp-lqwml43m2 svg [data-color="1"] {fill: #63C19C;}</style></defs>
    <g>
        <path d="M163.4 52h-131C20 52 20 69.6 20 69.6v61.7c0 5.9 3.5 16.7 16.6 16.7h126.7c5.9 0 16.6-3.5 16.6-16.7V68.7C180 63 176.5 52 163.4 52zm11.1 78.7c0 11.5-10.9 11.9-11.9 11.9H37.4c-11.6 0-11.9-10.8-11.9-11.9V69.2c-.1-4.7 1.7-11.8 10-11.7h127.2c11.6 0 11.9 10.8 11.9 11.9l-.1 61.3z" fill="#c1272d" data-color="1"/>
        <path d="M153.9 66.5h-6c-4.6 0-13.4 2.7-13.4 12.8v16c0 4.5 2.8 12.8 13.4 12.8h6c4.6 0 13.4-2.7 13.4-12.8v-16c0-6.1-2.8-12.8-13.4-12.8zm9.7 28.9c0 8.9-7.5 9.1-9.3 9.1H147c-8.6 0-8.8-7.7-8.8-8.4V78.6c0-8.2 7.2-8.3 8.8-8.3h7.6c8.6 0 8.8 7.6 8.8 8.3l.2 16.8z" fill="#c1272d" data-color="1"/>
        <path d="M45.4 103.6c.9-.7 3.3-.7 4.2 0 2.7 2.2 7.3 2.2 10 0 .9-.7 3.3-.7 4.2 0 2.7 2.2 7.3 2.2 10 0 .9-.7 3.3-.7 4.2 0 1.3 1.1 3.1 1.6 4.9 1.6s3.6-.5 4.9-1.6c.9-.7 3.3-.7 4.2 0 2.7 2.2 7.3 2.2 10 0 .9-.7 1.1-2.2.4-3.3-.7-.9-2.2-1.1-3.3-.4-.9.7-3.3.7-4.2 0-2.7-2.2-7.3-2.2-10 0-.9.7-3.3.7-4.2 0-2.7-2.2-7.3-2.2-10 0-.9.7-3.3.7-4.2 0-2.7-2.2-7.3-2.2-10 0-.9.7-3.3.7-4.2 0-2.7-2.2-7.3-2.2-10 0-.9.7-1.1 2.2-.4 3.3 1 1 2.5 1.1 3.5.4z" fill="#c1272d" data-color="1"/>
        <path d="M99.3 112.7c-.9.7-3.3.7-4.2 0-2.7-2.2-7.3-2.2-10 0-.9.7-3.3.7-4.2 0-2.7-2.2-7.3-2.2-10 0-.9.7-3.3.7-4.2 0-2.7-2.2-7.3-2.2-10 0-.9.7-3.3.7-4.2 0-2.7-2.2-7.3-2.2-10 0-.9.7-1.1 2.2-.4 3.3.7.9 2.2 1.1 3.3.4.9-.7 3.3-.7 4.2 0 2.7 2.2 7.3 2.2 10 0 .9-.7 3.3-.7 4.2 0 2.7 2.2 7.3 2.2 10 0 .9-.7 3.3-.7 4.2 0 1.3 1.1 3.1 1.6 4.9 1.6s3.6-.5 4.9-1.6c.9-.7 3.3-.7 4.2 0 2.7 2.2 7.3 2.2 10 0 .9-.7 1.1-2.2.4-3.3-.8-1.1-2.2-1.1-3.1-.4z" fill="#c1272d" data-color="1"/>
        <path d="M99.3 125.4c-.9.7-3.3.7-4.2 0-2.7-2.2-7.3-2.2-10 0-.9.7-3.3.7-4.2 0-2.7-2.2-7.3-2.2-10 0-.9.7-3.3.7-4.2 0-2.7-2.2-7.3-2.2-10 0-.9.7-3.3.7-4.2 0-2.7-2.2-7.3-2.2-10 0-.9.7-1.1 2.2-.4 3.3.7.9 2.2 1.1 3.3.4.9-.7 3.3-.7 4.2 0 2.7 2.2 7.3 2.2 10 0 .9-.7 3.3-.7 4.2 0 2.7 2.2 7.3 2.2 10 0 .9-.7 3.3-.7 4.2 0 1.3 1.1 3.1 1.6 4.9 1.6s3.6-.5 4.9-1.6c.9-.7 3.3-.7 4.2 0 2.7 2.2 7.3 2.2 10 0 .9-.7 1.1-2.2.4-3.3s-2.2-1.2-3.1-.4z" fill="#c1272d" data-color="1"/>
    </g>
</svg>