<svg preserveAspectRatio="none" data-bbox="28 20 143.999 160" viewBox="28 20 143.999 160" height="200" width="200" xmlns="http://www.w3.org/2000/svg" data-type="shape" role="presentation" aria-hidden="true" aria-label="">
    <g>
        <path d="M166.547 180c-3.012 0-5.453-2.431-5.453-5.431v-16.571c0-15.28-12.481-27.711-27.821-27.711H66.726c-15.339 0-27.821 12.432-27.821 27.711v16.571c0 3-2.441 5.431-5.453 5.431S28 177.569 28 174.569v-16.571c0-21.269 17.372-38.573 38.726-38.573h66.547c21.354 0 38.726 17.304 38.726 38.573v16.571c.001 3-2.44 5.431-5.452 5.431z"/>
        <path d="M100 97.146c-21.354 0-38.726-17.304-38.726-38.573S78.646 20 100 20s38.726 17.303 38.726 38.572S121.354 97.146 100 97.146zm0-66.284c-15.339 0-27.821 12.431-27.821 27.71S84.661 86.284 100 86.284s27.821-12.432 27.821-27.711S115.339 30.862 100 30.862z"/>
    </g>
</svg>